<?xml version="1.0" encoding="UTF-8" standalone="no"?>
<svg
   xmlns:dc="http://purl.org/dc/elements/1.1/"
   xmlns:cc="http://creativecommons.org/ns#"
   xmlns:rdf="http://www.w3.org/1999/02/22-rdf-syntax-ns#"
   xmlns:svg="http://www.w3.org/2000/svg"
   xmlns="http://www.w3.org/2000/svg"
   viewBox="0 0 781.33331 370.66666"
   height="370.66666"
   width="781.33331"
   xml:space="preserve"
   id="svg2"
   version="1.1"><metadata
     id="metadata8"><rdf:RDF><cc:Work
         rdf:about=""><dc:format>image/svg+xml</dc:format><dc:type
           rdf:resource="http://purl.org/dc/dcmitype/StillImage" /></cc:Work></rdf:RDF></metadata><defs
     id="defs6"><clipPath
       id="clipPath18"
       clipPathUnits="userSpaceOnUse"><path
         id="path16"
         d="M 0,278 H 586 V 0 H 0 Z" /></clipPath><linearGradient
       id="linearGradient56"
       spreadMethod="pad"
       gradientTransform="matrix(76.262642,76.262642,76.262642,-76.262642,118.87523,102.32767)"
       gradientUnits="userSpaceOnUse"
       y2="0"
       x2="1"
       y1="0"
       x1="0"><stop
         id="stop50"
         offset="0"
         style="stop-opacity:1;stop-color:#70397b" /><stop
         id="stop52"
         offset="0.99991001"
         style="stop-opacity:1;stop-color:#c73389" /><stop
         id="stop54"
         offset="1"
         style="stop-opacity:1;stop-color:#c73389" /></linearGradient><clipPath
       id="clipPath66"
       clipPathUnits="userSpaceOnUse"><path
         id="path64"
         d="M 0,278 H 586 V 0 H 0 Z" /></clipPath></defs><g
     transform="matrix(1.3333333,0,0,-1.3333333,0,370.66667)"
     id="g10"><g
       id="g12"><g
         clip-path="url(#clipPath18)"
         id="g14"><path
           id="path20"
           style="fill:#2b2b2a;fill-opacity:1;fill-rule:nonzero;stroke:none"
           d="m 231.872,150.995 h 15.593 v -55.83 h -15.593 z m 7.901,22.468 c 2.78,0 4.955,-0.873 6.527,-2.619 1.572,-1.746 2.354,-3.834 2.354,-6.265 0,-2.481 -0.797,-4.613 -2.394,-6.381 -1.597,-1.775 -3.816,-2.663 -6.654,-2.663 -2.729,0 -4.897,0.895 -6.505,2.685 -1.608,1.783 -2.416,3.849 -2.416,6.199 0,2.401 0.808,4.504 2.416,6.323 1.608,1.812 3.834,2.721 6.672,2.721" /><g
           transform="translate(277.6311,143.9514)"
           id="g22"><path
             id="path24"
             style="fill:#2b2b2a;fill-opacity:1;fill-rule:nonzero;stroke:none"
             d="m 0,0 v -32.371 c 0,-3.224 0.953,-5.516 2.863,-6.876 1.364,-1.092 3.944,-1.638 7.738,-1.638 v -7.901 c -0.327,-0.022 -0.916,-0.052 -1.761,-0.081 -0.873,-0.05 -1.855,-0.08 -2.946,-0.08 -7.179,0 -12.428,1.223 -15.761,3.682 -3.929,2.67 -5.893,7.204 -5.893,13.585 V 0 H -26.318 V 7.043 H -15.76 V 29.345 H 0 V 7.043 h 10.601 l 0,-7.043 z" /></g><g
           transform="translate(335.1745,97.5007)"
           id="g26"><path
             id="path28"
             style="fill:#2b2b2a;fill-opacity:1;fill-rule:nonzero;stroke:none"
             d="m 0,0 c 0,-0.218 -1.575,-0.655 -4.726,-1.31 -3.151,-0.655 -7.171,-1.047 -12.056,-1.186 -6.818,0 -12.225,0.953 -16.204,2.86 -3.988,1.913 -6.855,5.027 -8.615,9.357 -1.761,4.322 -2.642,10.252 -2.642,17.783 0.219,6.002 1.179,10.914 2.885,14.734 1.707,3.82 4.42,6.679 8.146,8.571 3.725,1.899 8.695,2.845 14.916,2.845 3.958,-0.08 7.512,-0.422 10.663,-1.018 3.154,-0.604 5.41,-1.092 6.774,-1.478 l 1.677,-8.062 c -1.011,0.517 -2.867,1.157 -5.566,1.921 -2.699,0.764 -6.097,1.186 -10.19,1.273 -5.374,0 -8.95,-1.775 -10.721,-5.325 -1.776,-3.544 -2.664,-8.033 -2.664,-13.461 0,-6.549 0.732,-11.875 2.191,-15.986 1.458,-4.104 4.467,-6.323 9.022,-6.65 3.631,0 6.756,0.313 9.375,0.945 2.62,0.626 4.726,1.317 6.323,2.067 1.598,0.749 2.394,1.208 2.394,1.368 z" /></g><g
           transform="translate(355.2711,123.1634)"
           id="g30"><path
             id="path32"
             style="fill:#2b2b2a;fill-opacity:1;fill-rule:nonzero;stroke:none"
             d="m 0,0 c 0.193,-4.831 0.469,-8.491 0.84,-10.994 0.368,-2.496 1.354,-4.751 2.965,-6.774 1.612,-2.016 4.093,-3.027 7.448,-3.027 4.693,0 7.654,1.783 8.884,5.341 1.229,3.565 1.841,8.6 1.841,15.127 0,6.41 -0.619,11.482 -1.863,15.199 -1.241,3.726 -4.195,5.589 -8.862,5.589 C 6.45,20.322 3.376,18.467 2.026,14.872 0.673,11.285 0,6.331 0,0 m 11.092,28.159 c 6.491,0 11.686,-1.055 15.571,-3.151 3.89,-2.102 6.68,-5.217 8.372,-9.335 C 36.726,11.555 37.57,6.331 37.57,0 c 0,-9.91 -2.103,-17.157 -6.301,-21.755 -4.202,-4.599 -11.052,-6.898 -20.548,-6.898 -9,0.08 -15.64,2.386 -19.907,6.919 -4.271,4.526 -6.41,11.715 -6.41,21.567 0.167,18.881 9.058,28.326 26.688,28.326" /></g><g
           transform="translate(398.2039,95.1649)"
           id="g34"><path
             id="path36"
             style="fill:#2b2b2a;fill-opacity:1;fill-rule:nonzero;stroke:none"
             d="m 0,0 v 55.83 h 15.757 v -4.548 c 3.248,3.253 8.225,4.875 14.941,4.875 4.744,0 8.084,-0.858 10.005,-2.583 1.921,-1.717 3.048,-3.15 3.376,-4.293 0.029,0.051 0.582,0.67 1.659,1.841 1.077,1.172 2.663,2.241 4.766,3.209 2.102,0.975 4.773,1.521 8.025,1.659 5.974,0 10.456,-1.361 13.443,-4.089 2.987,-2.729 4.482,-6.28 4.482,-10.645 V 0 H 64.379 v 39.91 c 0,5.02 -3.012,7.53 -9.044,7.53 C 52.17,47.222 49.911,46.073 48.561,43.999 47.208,41.925 46.4,40.223 46.124,38.884 V 0 H 34.052 v 39.91 c 0,2.153 -0.734,3.943 -2.212,5.377 -1.47,1.433 -3.761,2.153 -6.875,2.153 -3.326,-0.327 -5.647,-1.578 -6.957,-3.747 -1.309,-2.168 -2.059,-3.936 -2.251,-5.304 L 15.757,0 Z" /></g></g></g><g
       id="g38"><g
         id="g40"><g
           id="g46"><g
             id="g48"><path
               id="path58"
               style="fill:url(#linearGradient56);stroke:none"
               d="m 111.342,170.28 v -62.284 c 0,-7.29 5.912,-13.21 13.21,-13.21 v 0 h 62.273 c 7.294,0 13.21,5.916 13.21,13.221 v 0 62.269 c 0,7.295 -5.916,13.214 -13.218,13.211 v 0 l -62.265,0.003 c -7.298,0 -13.221,-5.919 -13.21,-13.21" /></g></g></g></g><g
       id="g60"><g
         clip-path="url(#clipPath66)"
         id="g62"><g
           transform="translate(165.0508,115.0108)"
           id="g68"><path
             id="path70"
             style="fill:#ffffff;fill-opacity:1;fill-rule:nonzero;stroke:none"
             d="m 0,0 c 2.438,-2.46 7.087,-1.724 8.026,2.51 l 12.337,45.098 c 0.956,3.496 -2.238,6.73 -5.745,5.802 L -30.6,41.543 c -4.256,-0.899 -5.027,-5.526 -2.608,-8.004 l 6.956,-7.014 6.548,6.49 c -1.455,5.457 5.305,9.387 9.31,5.348 3.991,-4.041 0,-10.776 -5.442,-9.241 C -22.68,22.33 -29.039,16.04 -35.878,9.269 c -5.458,1.51 -9.445,-5.216 -5.443,-9.244 3.995,-4.045 10.754,-0.113 9.299,5.341 10.092,9.983 22.112,21.879 32.193,31.87 -1.459,5.46 5.308,9.375 9.303,5.337 4.001,-4.043 0,-10.758 -5.436,-9.245 -7.243,-7.159 -13.999,-13.846 -21.246,-21.02 -5.435,1.52 -9.433,-5.21 -5.428,-9.249 3.995,-4.038 10.754,-0.101 9.292,5.341 1.92,1.892 3.347,3.311 5.257,5.21 -1.463,5.457 5.308,9.379 9.302,5.337 C 5.217,14.919 1.223,8.189 -4.22,9.699 L -6.934,7.018 Z m -20.038,8.306 c 1.782,1.76 4.445,-0.935 2.67,-2.693 -1.768,-1.757 -4.442,0.935 -2.67,2.693 M -38.723,5.279 c 1.79,1.753 4.445,-0.939 2.684,-2.696 -1.786,-1.765 -4.453,0.939 -2.684,2.696 M -4.067,16.4 c 1.779,1.754 4.453,-0.949 2.67,-2.695 -1.764,-1.765 -4.442,0.931 -2.67,2.695 m -11.606,19.409 c 1.776,1.757 4.435,-0.945 2.671,-2.696 -1.772,-1.76 -4.446,0.932 -2.671,2.696 m 19.872,4.213 c 1.778,1.75 4.445,-0.938 2.677,-2.696 -1.779,-1.761 -4.456,0.943 -2.677,2.696" /></g></g></g></g></svg>