<svg width="119" height="119" viewBox="0 0 119 119" fill="none" xmlns="http://www.w3.org/2000/svg">
<path d="M2.03958e-05 17.6133V100.659C2.03958e-05 110.379 7.88269 118.272 17.6134 118.272H100.644C110.369 118.272 118.257 110.384 118.257 100.644V17.6187C118.257 7.892 110.369 4.45045e-06 100.633 0.00400445L17.6134 -3.52478e-06C7.88269 -3.52478e-06 -0.0146463 7.89201 2.03958e-05 17.6133Z" fill="url(#paint0_linear_1_18)"/>
<path d="M74.2626 93.4281C77.5132 96.7081 83.7119 95.7268 84.9639 90.0814L101.413 29.9508C102.688 25.2894 98.4292 20.9774 93.7532 22.2148L33.4626 38.0374C27.7879 39.2361 26.7599 45.4054 29.9852 48.7094L39.2599 58.0614L47.9906 49.4081C46.0506 42.1321 55.0639 36.8921 60.4039 42.2774C65.7252 47.6654 60.4039 56.6454 53.1479 54.5988C44.0226 63.6548 35.5439 72.0414 26.4252 81.0694C19.1479 79.0561 13.8319 88.0241 19.1679 93.3948C24.4946 98.7881 33.5066 93.5454 31.5666 86.2734C45.0226 72.9628 61.0492 57.1014 74.4906 43.7801C72.5452 36.5001 81.5679 31.2801 86.8946 36.6641C92.2292 42.0548 86.8946 51.0081 79.6466 48.9908C69.9892 58.5361 60.9812 67.4521 51.3186 77.0174C44.0719 74.9908 38.7412 83.9641 44.0812 89.3494C49.4079 94.7334 58.4199 89.4841 56.4706 82.2281C59.0306 79.7054 60.9332 77.8134 63.4799 75.2814C61.5292 68.0054 70.5572 62.7761 75.8826 68.1654C81.2186 73.5361 75.8932 82.5094 68.6359 80.4961L65.0172 84.0708L74.2626 93.4281ZM47.5452 82.3534C49.9212 80.0068 53.4719 83.6001 51.1052 85.9441C48.7479 88.2868 45.1826 84.6974 47.5452 82.3534ZM22.6319 86.3894C25.0186 84.0521 28.5586 87.6414 26.2106 89.9841C23.8292 92.3374 20.2732 88.7321 22.6319 86.3894ZM68.8399 71.5614C71.2119 69.2228 74.7772 72.8268 72.3999 75.1548C70.0479 77.5081 66.4772 73.9134 68.8399 71.5614ZM53.3652 45.6828C55.7332 43.3401 59.2786 46.9428 56.9266 49.2774C54.5639 51.6241 50.9986 48.0348 53.3652 45.6828ZM79.8612 40.0654C82.2319 37.7321 85.7879 41.3161 83.4306 43.6601C81.0586 46.0081 77.4892 42.4028 79.8612 40.0654Z" fill="white"/>
<defs>
<linearGradient id="paint0_linear_1_18" x1="10.0443" y1="108.216" x2="111.728" y2="6.53292" gradientUnits="userSpaceOnUse">
<stop stop-color="#70397B"/>
<stop offset="0.99991" stop-color="#C73389"/>
<stop offset="1" stop-color="#C73389"/>
</linearGradient>
</defs>
</svg>
