<svg width="490" height="119" viewBox="0 0 490 119" fill="none" xmlns="http://www.w3.org/2000/svg">
<path d="M165.583 42.9573H186.373V117.397H165.583V42.9573ZM176.117 13C179.824 13 182.724 14.164 184.82 16.492C186.916 18.82 187.959 21.604 187.959 24.8453C187.959 28.1533 186.896 30.996 184.767 33.3533C182.637 35.72 179.679 36.904 175.895 36.904C172.256 36.904 169.365 35.7107 167.221 33.324C165.077 30.9467 164 28.192 164 25.0587C164 21.8573 165.077 19.0533 167.221 16.628C169.365 14.212 172.333 13 176.117 13Z" fill="#2B2B2A"/>
<path d="M226.595 52.3488V95.5101C226.595 99.8088 227.865 102.865 230.412 104.678C232.231 106.134 235.671 106.862 240.729 106.862V117.397C240.293 117.426 239.508 117.466 238.381 117.505C237.217 117.571 235.908 117.611 234.453 117.611C224.881 117.611 217.883 115.981 213.439 112.702C208.2 109.142 205.581 103.097 205.581 94.5888V52.3488H191.504V42.9581H205.581V13.2221H226.595V42.9581H240.729V52.3488H226.595Z" fill="#2B2B2A"/>
<path d="M303.319 114.283C303.319 114.574 301.219 115.156 297.018 116.03C292.817 116.903 287.457 117.426 280.943 117.611C271.853 117.611 264.643 116.34 259.338 113.798C254.021 111.247 250.198 107.095 247.851 101.322C245.503 95.5591 244.329 87.6524 244.329 77.6111C244.621 69.6084 245.901 63.0591 248.175 57.9657C250.451 52.8724 254.069 49.0604 259.037 46.5377C264.003 44.0057 270.63 42.7444 278.925 42.7444C284.202 42.8511 288.941 43.3071 293.142 44.1017C297.347 44.9071 300.355 45.5577 302.174 46.0724L304.41 56.8217C303.062 56.1324 300.587 55.2791 296.989 54.2604C293.39 53.2417 288.859 52.6791 283.402 52.5631C276.237 52.5631 271.469 54.9297 269.107 59.6631C266.739 64.3884 265.555 70.3737 265.555 77.6111C265.555 86.3431 266.531 93.4444 268.477 98.9257C270.421 104.398 274.433 107.356 280.506 107.792C285.347 107.792 289.514 107.375 293.006 106.532C296.499 105.698 299.307 104.776 301.437 103.776C303.567 102.778 304.629 102.166 304.629 101.952L303.319 114.283Z" fill="#2B2B2A"/>
<path d="M330.115 80.0661C330.372 86.5075 330.74 91.3875 331.235 94.7248C331.725 98.0528 333.04 101.059 335.188 103.757C337.337 106.445 340.645 107.793 345.119 107.793C351.376 107.793 355.324 105.415 356.964 100.671C358.603 95.9181 359.419 89.2048 359.419 80.5021C359.419 71.9555 358.593 65.1928 356.935 60.2368C355.28 55.2688 351.341 52.7848 345.119 52.7848C338.715 52.9701 334.616 55.4435 332.816 60.2368C331.012 65.0195 330.115 71.6248 330.115 80.0661ZM344.904 42.5208C353.559 42.5208 360.485 43.9275 365.665 46.7221C370.852 49.5248 374.572 53.6781 376.828 59.1688C379.083 64.6595 380.208 71.6248 380.208 80.0661C380.208 93.2795 377.404 102.942 371.807 109.073C366.204 115.205 357.071 118.27 344.409 118.27C332.409 118.163 323.556 115.089 317.867 109.045C312.172 103.01 309.32 93.4248 309.32 80.2888C309.543 55.1141 321.397 42.5208 344.904 42.5208Z" fill="#2B2B2A"/>
<path d="M387.358 117.397V42.9575H408.368V49.0215C412.698 44.6841 419.334 42.5215 428.289 42.5215C434.614 42.5215 439.068 43.6655 441.629 45.9655C444.19 48.2548 445.693 50.1655 446.13 51.6895C446.169 51.6215 446.906 50.7961 448.342 49.2348C449.778 47.6721 451.893 46.2468 454.697 44.9561C457.5 43.6561 461.061 42.9281 465.397 42.7441C473.362 42.7441 479.338 44.5588 483.321 48.1961C487.304 51.8348 489.297 56.5695 489.297 62.3895V117.397H473.197V64.1841C473.197 57.4908 469.181 54.1441 461.138 54.1441C456.918 54.4348 453.906 55.9668 452.106 58.7321C450.302 61.4975 449.225 63.7668 448.857 65.5521V117.397H432.761V64.1841C432.761 61.3135 431.782 58.9268 429.812 57.0148C427.852 55.1041 424.797 54.1441 420.645 54.1441C416.21 54.5801 413.116 56.2481 411.369 59.1401C409.624 62.0308 408.624 64.3881 408.368 66.2121V117.397H387.358Z" fill="#2B2B2A"/>
<path d="M2.03958e-05 17.6133V100.659C2.03958e-05 110.379 7.88269 118.272 17.6134 118.272H100.644C110.369 118.272 118.257 110.384 118.257 100.644V17.6187C118.257 7.89201 110.369 7.62939e-06 100.633 0.00400543L17.6134 0C7.88269 0 -0.0146463 7.89201 2.03958e-05 17.6133Z" fill="url(#paint0_linear_1_52)"/>
<path d="M74.2626 100.428C77.5132 103.708 83.7119 102.727 84.9639 97.0814L101.413 36.9508C102.688 32.2894 98.4292 27.9774 93.7532 29.2148L33.4626 45.0374C27.7879 46.2361 26.7599 52.4054 29.9852 55.7094L39.2599 65.0614L47.9906 56.4081C46.0506 49.1321 55.0639 43.8921 60.4039 49.2774C65.7252 54.6654 60.4039 63.6454 53.1479 61.5988C44.0226 70.6548 35.5439 79.0414 26.4253 88.0694C19.1479 86.0561 13.8319 95.0241 19.1679 100.395C24.4946 105.788 33.5066 100.545 31.5666 93.2734C45.0226 79.9628 61.0492 64.1014 74.4906 50.7801C72.5452 43.5001 81.5679 38.2801 86.8946 43.6641C92.2292 49.0548 86.8946 58.0081 79.6466 55.9908C69.9892 65.5361 60.9812 74.4521 51.3186 84.0174C44.0719 81.9908 38.7412 90.9641 44.0812 96.3494C49.4079 101.733 58.4199 96.4841 56.4706 89.2281C59.0306 86.7054 60.9332 84.8134 63.4799 82.2814C61.5292 75.0054 70.5572 69.7761 75.8826 75.1654C81.2186 80.5361 75.8932 89.5094 68.6359 87.4961L65.0172 91.0708L74.2626 100.428ZM47.5452 89.3534C49.9212 87.0068 53.4719 90.6001 51.1052 92.9441C48.7479 95.2868 45.1826 91.6974 47.5452 89.3534ZM22.6319 93.3894C25.0186 91.0521 28.5586 94.6414 26.2106 96.9841C23.8292 99.3374 20.2732 95.7321 22.6319 93.3894ZM68.8399 78.5614C71.2119 76.2228 74.7772 79.8268 72.3999 82.1548C70.0479 84.5081 66.4772 80.9134 68.8399 78.5614ZM53.3652 52.6828C55.7332 50.3401 59.2786 53.9428 56.9266 56.2774C54.5639 58.6241 50.9986 55.0348 53.3652 52.6828ZM79.8612 47.0654C82.2319 44.7321 85.7879 48.3161 83.4306 50.6601C81.0586 53.0081 77.4892 49.4028 79.8612 47.0654Z" fill="white"/>
<defs>
<linearGradient id="paint0_linear_1_52" x1="10.0443" y1="108.216" x2="111.728" y2="6.53292" gradientUnits="userSpaceOnUse">
<stop stop-color="#70397B"/>
<stop offset="0.99991" stop-color="#C73389"/>
<stop offset="1" stop-color="#C73389"/>
</linearGradient>
</defs>
</svg>
