<svg xmlns="http://www.w3.org/2000/svg" xmlns:xlink="http://www.w3.org/1999/xlink" width="95" height="53" viewBox="0 0 95 53">
    <defs>
        <path id="a" d="M85 38.593a327.288 327.288 0 0 1 2.612 12.313c2.304 0 1.786-7.14 1.786-7.14s2.289.425 3.573 1.785c0-2.469-1.349-6.38-4.352-10.551"/>
        <path id="b" d="M87.504 32.039s.011-7.61.011-10.657C87.515 12.1 80.587 0 68.758 0l-.894.855C56.034.855 50 12.099 50 21.382c0 3.799.023 10.4.023 10.4"/>
        <path id="c" d="M85.729 28.28c0-7.408-11.612-14.28-11.612-14.28s-22.33 6.872-22.33 14.28c-1.682.718-1.789 2.256-1.787 4.462.002 1.846 1.91 6.032 4.291 6.23 3.384 6.39 9.557 10.728 14.467 10.728 4.909 0 11.083-4.338 14.466-10.728 2.382-.198 4.29-4.384 4.291-6.23.002-2.206-.105-3.744-1.786-4.462z"/>
        <path id="d" d="M54.83 40.393l-2.47 10.513c-2.303 0-1.787-7.14-1.787-7.14s-2.289.427-3.573 1.785c0-2.467 1.35-6.38 4.354-10.551l3.475 5.393z"/>
        <path id="e" d="M35.787 38.472c-1.438 4.477-3.039-.056-7.329 3.507-.596-2.025-2.392-3.507-4.539-3.507H16.764c-2.147 0-3.942 1.482-4.539 3.507-4.29-3.563-6.133.97-7.571-3.507"/>
        <path id="f" d="M22 45h-3"/>
        <path id="g" d="M1.93 27.023c0-3.898 4.432-10.394 11.585-10.394 5.962 0 10.619-4.157 10.619-4.157 4.77 0 13.287 4.157 14.48 14.55.545.252.925.6 1.205 1.017.336-1.494.726-3.71.726-5.953C40.545 16.889 38.16 0 20.272 0l-.965 1.04C1.42 1.04 0 16.89 0 22.085c0 2.243.39 4.459.726 5.953.28-.418.66-.765 1.205-1.016z"/>
        <path id="h" d="M1.93 26C.117 26.836-.003 28.627 0 31.197c.002 2.149 2.253 7.046 4.827 7.275 3.659 7.442 7.723 12.472 15.445 12.472 7.723 0 11.787-5.03 15.446-12.472 2.574-.229 4.825-5.126 4.827-7.275.004-2.57-.116-4.361-1.93-5.197"/>
    </defs>
    <g fill="none" fill-rule="evenodd">
        <g stroke-linecap="round" stroke-linejoin="round" transform="translate(1 1)">
            <use stroke="#9C9C9C" xlink:href="#a"/>
            <use stroke="#979797" stroke-width="2" xlink:href="#a"/>
        </g>
        <g stroke-linecap="round" stroke-linejoin="round" transform="translate(1 1)">
            <use stroke="#9C9C9C" xlink:href="#b"/>
            <use stroke="#979797" stroke-width="2" xlink:href="#b"/>
        </g>
        <path d="M63 30a1 1 0 1 1-2 0 1 1 0 0 1 2 0z"/>
        <g stroke-linecap="round" stroke-linejoin="round" transform="translate(1 1)">
            <use stroke="#9C9C9C" xlink:href="#c"/>
            <use stroke="#979797" stroke-width="2" xlink:href="#c"/>
        </g>
        <g stroke-linecap="round" stroke-linejoin="round" transform="translate(1 1)">
            <use stroke="#9C9C9C" xlink:href="#d"/>
            <use stroke="#979797" stroke-width="2" xlink:href="#d"/>
        </g>
        <g stroke-linecap="round" stroke-linejoin="round" transform="translate(1 1)">
            <use stroke="#9C9C9C" xlink:href="#e"/>
            <use stroke="#979797" stroke-width="2" xlink:href="#e"/>
        </g>
        <g stroke-linecap="round" stroke-linejoin="round" transform="translate(1 1)">
            <use stroke="#9C9C9C" xlink:href="#f"/>
            <use stroke="#979797" stroke-width="2" xlink:href="#f"/>
        </g>
        <path fill="#9B9B9B" d="M14 28.5a1.5 1.5 0 1 1-3.001-.001A1.5 1.5 0 0 1 14 28.5zM64 28.5a1.5 1.5 0 1 1-3.001-.001A1.5 1.5 0 0 1 64 28.5zM32 28.5a1.5 1.5 0 1 1-3.001-.001A1.5 1.5 0 0 1 32 28.5zM81 28.5a1.5 1.5 0 1 1-3.001-.001A1.5 1.5 0 0 1 81 28.5z"/>
        <g stroke-linecap="round" stroke-linejoin="round" transform="translate(1 1)">
            <use stroke="#9C9C9C" xlink:href="#g"/>
            <use stroke="#979797" stroke-width="2" xlink:href="#g"/>
        </g>
        <g stroke-linecap="round" stroke-linejoin="round" transform="translate(1 1)">
            <use stroke="#9C9C9C" xlink:href="#h"/>
            <use stroke="#979797" stroke-width="2" xlink:href="#h"/>
        </g>
    </g>
</svg>
