<svg xmlns="http://www.w3.org/2000/svg" width="50" height="50" viewBox="0 0 50 50">
    <g fill="#9B9B9B" fill-rule="evenodd" stroke="#9B9B9B">
        <path fill-rule="nonzero" d="M25.257.88C11.953.88 1.143 11.69 1.143 24.994c0 13.305 10.81 24.115 24.114 24.115 13.305 0 24.114-10.81 24.114-24.115C49.371 11.69 38.561.88 25.257.88zm0 1.663a22.358 22.358 0 0 1 22.451 22.451 22.358 22.358 0 0 1-22.45 22.452A22.358 22.358 0 0 1 2.805 24.994a22.358 22.358 0 0 1 22.451-22.45z"/>
        <path d="M34.507 16.956a.837.837 0 0 0-.574.245l-8.838 8.838c-.397.397-.746.537-1.045.539-.296 0-.62-.129-1.032-.539l-4.008-4.003c-.73-.763-1.89.413-1.135 1.138l4.008 4.003c.63.63 1.371 1.013 2.17 1.008.796-.004 1.566-.395 2.177-1.006l8.842-8.842c.498-.49.173-1.382-.563-1.382l-.002.001z"/>
    </g>
</svg>
