<svg xmlns="http://www.w3.org/2000/svg" width="48" height="49" viewBox="0 0 48 49">
    <g fill="none" fill-rule="evenodd" stroke="#9B9B9B">
        <path fill="#9B9B9B" d="M10.654 41.756a.78.78 0 0 0-.536.233L8.563 43.53c-.763.729.366 1.846 1.1 1.09l1.554-1.542c.507-.49.153-1.323-.563-1.323zM5.962 41.756a.78.78 0 0 0-.536.233L3.87 43.53c-.763.729.366 1.846 1.1 1.09l1.554-1.542c.507-.49.136-1.323-.563-1.323zM5.962 37.102a.78.78 0 0 0-.536.233L3.87 38.877c-.763.729.366 1.846 1.1 1.09l1.554-1.542c.507-.49.144-1.323-.563-1.323zM10.67 30.897c-.43.006-.787.349-.782.776v.775c0 3.418 2.81 6.206 6.256 6.206h.782c1.063 0 1-1.552 0-1.552h-.782c-2.601 0-4.692-2.074-4.692-4.654v-.775a.763.763 0 0 0-.782-.776z"/>
        <path stroke-width="2" d="M33.347 9.178c-3.445 0-6.256 2.788-6.256 6.205 0 3.418 2.81 6.206 6.256 6.206 3.445 0 6.256-2.788 6.256-6.206 0-3.417-2.81-6.205-6.256-6.205z"/>
        <path fill="#9B9B9B" d="M43.21 1.457c-1.279-.085-2.799.051-4.481.385-3.366.667-7.393 2.131-11.245 4.337-7.712 4.416-13.148 11.113-17.523 20.514-.797 1.715-3.143 4.31-5.025 5.294-.941.494-1.626.55-2.017.303-.393-.245-.851-1.04-.851-2.944 0-1.733.75-4.619 1.79-6.96.52-1.171 1.111-2.218 1.671-2.924.56-.709 1.08-.977 1.23-.977.414 0 .637.108.838.288.203.177.366.45.484.76.232.616.243 1.279.243 1.279-.016 1.048 1.58 1.048 1.564 0 0 0 .01-.89-.344-1.825-.175-.465-.45-.968-.907-1.373a2.842 2.842 0 0 0-1.877-.682c-1.021 0-1.772.7-2.459 1.57-.688.868-1.317 2-1.873 3.257C1.318 24.266.504 27.2.504 29.346c0 2.147.49 3.57 1.577 4.253 1.086.683 2.408.379 3.586-.239 2.358-1.233 4.707-3.853 5.713-6.019 4.283-9.212 9.487-15.58 16.884-19.815 3.702-2.12 7.6-3.532 10.771-4.16 1.584-.314 2.987-.43 4.066-.358 1.08.072 1.799.36 2.08.64.282.279.571.99.645 2.06.07 1.07-.047 2.463-.363 4.033-.634 3.146-2.057 7.012-4.195 10.686-4.27 7.338-10.69 12.497-19.98 16.75-2.18.999-4.82 3.327-6.064 5.665-.623 1.168-.93 2.478-.24 3.556.687 1.078 2.126 1.564 4.287 1.564 2.163 0 5.12-.807 7.648-1.909 1.262-.552 2.409-1.179 3.281-1.858.876-.683 1.583-1.427 1.583-2.439 0-.754-.281-1.405-.688-1.861-.407-.455-.912-.726-1.383-.9-.943-.352-1.839-.341-1.839-.341-1.057-.016-1.057 1.566 0 1.55 0 0 .668.012 1.289.243.313.116.588.28.766.48.18.198.291.42.291.83 0 .15-.27.666-.985 1.22-.712.555-1.767 1.142-2.947 1.657-2.361 1.032-5.27 1.776-7.016 1.776-1.923 0-2.72-.454-2.968-.842-.25-.388-.192-1.07.305-2.001.993-1.87 3.608-4.195 5.336-4.986 9.478-4.34 16.23-9.732 20.682-17.38 2.224-3.821 3.699-7.816 4.371-11.154.335-1.672.472-3.18.386-4.448-.087-1.267-.375-2.33-1.1-3.05-.726-.721-1.8-1.005-3.075-1.092h.003z"/>
    </g>
</svg>
