<svg xmlns="http://www.w3.org/2000/svg" width="41" height="46" viewBox="0 0 41 46">
    <g fill="none" fill-rule="evenodd" stroke="#9B9B9B">
        <path fill="#9B9B9B" fill-rule="nonzero" d="M28.885 15.114a.816.816 0 0 0-.559.239l-8.613 8.613c-.387.386-.727.523-1.018.524-.288 0-.605-.125-1.006-.524l-3.905-3.901c-.712-.744-1.841.402-1.106 1.109l3.905 3.9c.614.615 1.336.988 2.115.983.775-.005 1.526-.385 2.121-.98l8.616-8.617c.486-.478.17-1.347-.548-1.347l-.002.001z"/>
        <path stroke-width="2" d="M20.27 1.156c.143 0 .27.079.474.207.467.293 1.104.696 1.853 1.101 1.498.812 3.447 1.685 5.505 1.685 1.946 0 3.446-.423 4.687-.82 1.238-.4 2.203-.747 3.146-.747 1.037 0 1.817.188 2.303.587.485.401.83 1.128.83 2.546v12.533c0 2 .262 7.903-3.033 13.715-1.895 3.35-5.358 6.642-8.62 9.058-1.628 1.206-3.21 2.198-4.505 2.876-1.297.678-2.404.982-2.64.982-.236 0-1.345-.304-2.642-.982-1.296-.678-2.875-1.669-4.507-2.876-3.262-2.413-6.72-5.709-8.616-9.058C1.207 26.15 1.47 20.248 1.47 18.248V5.715c0-1.418.345-2.146.83-2.546.486-.399 1.265-.587 2.304-.587.943 0 1.906.348 3.145.747 1.238.397 2.742.82 4.687.82 2.057 0 3.995-.875 5.493-1.688.749-.407 1.386-.808 1.853-1.1.204-.126.342-.21.486-.21l.001.005z"/>
    </g>
</svg>
