<svg xmlns="http://www.w3.org/2000/svg" width="61" height="51" viewBox="0 0 61 51">
    <g fill="none" fill-rule="evenodd" stroke="#979797">
        <path stroke-width="2" d="M55.893 28.814c.416.679.719 1.414.888 2.144h1.326c.956 0 1.706.75 1.706 1.706s-.75 1.706-1.706 1.706h-1.322a7.4 7.4 0 0 1-.891 2.143l.599.6a1.69 1.69 0 0 1 0 2.413 1.69 1.69 0 0 1-2.413 0l-.6-.6a7.291 7.291 0 0 1-2.144.888v1.326c0 .956-.75 1.706-1.706 1.706s-1.706-.75-1.706-1.706v-1.322a7.4 7.4 0 0 1-2.143-.892l-.6.6a1.69 1.69 0 0 1-2.413 0 1.69 1.69 0 0 1 0-2.413l.6-.6a7.386 7.386 0 0 1-.887-2.144h-1.326c-.957 0-1.707-.75-1.707-1.706 0-.957.75-1.707 1.707-1.707h1.321a7.4 7.4 0 0 1 .892-2.143l-.6-.599a1.69 1.69 0 0 1 0-2.413 1.69 1.69 0 0 1 2.413 0l.6.6c.671-.411 1.4-.712 2.144-.888v-1.326c0-.956.75-1.706 1.706-1.706.957 0 1.707.75 1.707 1.706v1.322a7.4 7.4 0 0 1 2.143.892l.6-.6a1.69 1.69 0 0 1 2.412 0 1.69 1.69 0 0 1 0 2.413l-.6.6z"/>
        <path stroke-width="2" d="M49.631 29.131a3.542 3.542 0 0 0-3.531 3.532 3.542 3.542 0 0 0 3.531 3.531 3.542 3.542 0 0 0 3.532-3.531 3.542 3.542 0 0 0-3.532-3.532zM35.506 13.593a4.931 4.931 0 0 1 4.944 4.944 4.931 4.931 0 0 1-4.944 4.944 4.931 4.931 0 0 1-4.944-4.944 4.931 4.931 0 0 1 4.944-4.944z"/>
        <path fill="#9B9B9B" d="M34.093.88a2.13 2.13 0 0 0-2.119 2.119v2.698c-1.078.296-2.11.72-3.082 1.271l-2.649-2.646a2.131 2.131 0 0 0-2.998 0l-1.998 1.996c-.82.82-.82 2.176 0 2.995l2.666 2.666c-.54.956-.96 1.969-1.253 3.027h-2.693a2.13 2.13 0 0 0-2.118 2.119v2.825a2.13 2.13 0 0 0 2.118 2.119h2.696a13.4 13.4 0 0 0 1.261 3.056L21.249 27.8a2.131 2.131 0 0 0 0 3l1.997 1.997a2.131 2.131 0 0 0 2.999 0l2.68-2.684c.96.55 1.983.974 3.05 1.268v2.695a2.13 2.13 0 0 0 2.12 2.12h2.825c.938 0 .932-1.413 0-1.413h-2.825a.69.69 0 0 1-.707-.707V30.92a.708.708 0 0 0-.55-.693c-1.314-.299-2.572-.819-3.716-1.54a.705.705 0 0 0-.871.097l-3.005 3.014a.7.7 0 0 1-1.003 0L22.247 29.8a.7.7 0 0 1 0-1.002l3-2.995a.712.712 0 0 0 .102-.88 11.983 11.983 0 0 1-1.532-3.715.706.706 0 0 0-.692-.551h-3.158a.69.69 0 0 1-.706-.706v-2.825a.69.69 0 0 1 .706-.707h3.156c.33 0 .617-.226.692-.55.297-1.304.811-2.552 1.522-3.687a.706.706 0 0 0-.1-.876l-2.991-2.988a.69.69 0 0 1 0-.999l1.997-1.997a.695.695 0 0 1 1.003 0l2.97 2.972a.707.707 0 0 0 .877.099 12.03 12.03 0 0 1 3.739-1.544.71.71 0 0 0 .55-.692V2.999a.69.69 0 0 1 .707-.706h2.825a.69.69 0 0 1 .706.706v3.156c0 .33.226.617.551.692 1.314.3 2.567.819 3.71 1.538a.711.711 0 0 0 .875-.099l2.967-2.966a.69.69 0 0 1 .998 0l1.998 1.997a.69.69 0 0 1 0 .999l-2.952 2.96a.707.707 0 0 0-.1.876 11.959 11.959 0 0 1 1.526 3.715c.075.322.362.551.692.551h3.159a.69.69 0 0 1 .706.707v2.825c0 .943 1.413.92 1.413 0v-2.825a2.13 2.13 0 0 0-2.12-2.12H48.35a13.477 13.477 0 0 0-1.257-3.056l2.63-2.635a2.126 2.126 0 0 0 0-2.994L47.724 4.32a2.126 2.126 0 0 0-2.994 0l-2.642 2.642c-.96-.551-1.984-.975-3.05-1.269V2.999A2.13 2.13 0 0 0 36.917.88h-2.825z"/>
        <path stroke-width="2" d="M34.636 42.224c0-.165 0-.33-.07-.494-.165-.493-1.316-1.01-1.786-1.245-1.34-.752-2.703-1.48-4.019-2.256-.61-.376-1.363-1.08-2.091-1.08-1.434 0-3.525 4.252-4.794 4.252-.634 0-1.457-.587-2.02-.916-4.278-2.373-7.239-5.334-9.612-9.611-.33-.564-.917-1.387-.917-2.021 0-1.27 4.254-3.36 4.254-4.794 0-.728-.705-1.48-1.081-2.091-.776-1.316-1.504-2.68-2.256-4.019-.235-.47-.752-1.621-1.246-1.786-.164-.07-.329-.07-.493-.07-.846 0-2.491.376-3.266.728-1.152.494-1.904 1.81-2.491 2.867-.752 1.387-1.199 2.797-1.199 4.371 0 2.185.893 4.16 1.622 6.157.517 1.433 1.151 2.82 1.95 4.112 2.467 3.995 7.285 8.812 11.28 11.28 1.292.799 2.679 1.433 4.112 1.95 1.998.729 3.971 1.622 6.157 1.622 1.574 0 2.984-.447 4.37-1.199 1.058-.587 2.374-1.34 2.868-2.49.352-.776.728-2.421.728-3.267z"/>
    </g>
</svg>
