<svg xmlns="http://www.w3.org/2000/svg" width="77" height="46" viewBox="0 0 77 46">
    <g fill="#9B9B9B" fill-rule="nonzero">
        <path d="M1.276 25.52h7.656c.707 0 1.276.569 1.276 1.275 0 .707-.57 1.276-1.276 1.276H1.276C.569 28.071 0 27.502 0 26.795c0-.706.57-1.276 1.276-1.276zm0-10.208h7.656c.707 0 1.276.569 1.276 1.276 0 .707-.57 1.276-1.276 1.276H1.276c-.707 0-1.276-.57-1.276-1.276 0-.707.57-1.276 1.276-1.276zm0-10.208h7.656c.707 0 1.276.569 1.276 1.276 0 .707-.57 1.276-1.276 1.276H1.276C.569 7.656 0 7.086 0 6.38c0-.707.57-1.276 1.276-1.276zm61.247 28.071c-3.51 0-6.38 2.871-6.38 6.38 0 3.51 2.87 6.38 6.38 6.38 3.509 0 6.38-2.87 6.38-6.38 0-3.509-2.871-6.38-6.38-6.38zm0 2.552a3.81 3.81 0 0 1 3.828 3.828 3.81 3.81 0 0 1-3.828 3.828 3.81 3.81 0 0 1-3.828-3.828 3.81 3.81 0 0 1 3.828-3.828zm-33.176-2.552c-3.509 0-6.38 2.871-6.38 6.38 0 3.51 2.871 6.38 6.38 6.38 3.51 0 6.38-2.87 6.38-6.38 0-3.509-2.87-6.38-6.38-6.38zm0 2.552a3.81 3.81 0 0 1 3.828 3.828 3.81 3.81 0 0 1-3.828 3.828 3.81 3.81 0 0 1-3.828-3.828 3.81 3.81 0 0 1 3.828-3.828zM16.587 0C14.49 0 12.76 1.73 12.76 3.828v28.071c0 2.098 1.73 3.828 3.828 3.828h5.104c1.725.026 1.725-2.577 0-2.552h-5.104c-.73 0-1.276-.546-1.276-1.276V3.828c0-.73.546-1.276 1.276-1.276h33.175c.73 0 1.276.546 1.276 1.276v29.347H37.003c-1.684 0-1.653 2.578 0 2.552h17.864c1.684 0 1.669-2.552 0-2.552H53.59V10.208h10.787l9.628 15.046V31.9c0 .73-.546 1.276-1.276 1.276H70.18c-1.67 0-1.67 2.552 0 2.552h2.551c2.098 0 3.828-1.73 3.828-3.828v-7.018a1.29 1.29 0 0 0-.199-.689L66.152 8.242a1.278 1.278 0 0 0-1.077-.586H53.59V3.828C53.59 1.73 51.86 0 49.763 0H16.588z"/>
        <path stroke="#9B9B9B" d="M32.517 29.586v-.965c0-.29.193-.483.483-.483s.483.193.483.483v.965c0 .29-.193.483-.483.483s-.483-.193-.483-.483zm0-22.207v-.965c0-.29.193-.483.483-.483s.483.193.483.483v.965c0 .29-.193.483-.483.483s-.483-.193-.483-.483zM21.414 17.517h.965c.29 0 .483.193.483.483s-.193.483-.483.483h-.965c-.29 0-.483-.193-.483-.483s.193-.483.483-.483zm22.207 0h.965c.29 0 .483.193.483.483s-.193.483-.483.483h-.965c-.29 0-.483-.193-.483-.483s.193-.483.483-.483zM33 8.827c-.29 0-.483.194-.483.483v6.276c-.965.29-1.93 1.255-1.93 2.414 0 1.352.965 2.414 2.413 2.414 1.159 0 2.124-.966 2.317-1.931h4.345c.29 0 .483-.193.483-.483s-.193-.483-.483-.483h-4.248c-.29-.965-.966-1.641-1.931-1.93v-6.18c0-.29-.193-.483-.483-.483v-.096zm0 7.725c.772 0 1.448.676 1.448 1.448 0 .772-.676 1.448-1.448 1.448-.772 0-1.448-.676-1.448-1.448 0-.772.676-1.448 1.448-1.448zM33 4c-7.724 0-14 6.276-14 14s6.276 14 14 14 14-6.276 14-14S40.724 4 33 4zm0 .966A12.98 12.98 0 0 1 46.034 18 12.98 12.98 0 0 1 33 31.034 12.98 12.98 0 0 1 19.966 18 12.98 12.98 0 0 1 33 4.966z"/>
    </g>
</svg>
