<svg xmlns="http://www.w3.org/2000/svg" width="48" height="48" viewBox="0 0 48 48">
    <g fill="none" fill-rule="evenodd" stroke="#9B9B9B" stroke-width="2">
        <g stroke-linecap="round" stroke-linejoin="round">
            <path d="M24.262 14h7.433M24.262 19H32M23.536 24H31M19.307 13.053h-1.859c-1.027 0-1.858.694-1.858 1.549s.831 1.548 1.858 1.548c1.027 0 1.859.694 1.859 1.549s-.832 1.549-1.859 1.549H15.59M17.538 13.053v-1.239M17.538 19.248v1.238"/>
            <path d="M7.006 16.77v17.424c0 .996.886 1.802 1.98 1.802h29.038c1.094 0 1.98-.806 1.98-1.802V16.77M27.646 8.098l-2.435-1.485a2.693 2.693 0 0 0-1.569-.515c-.612 0-1.146.214-1.568.515l-2.436 1.485"/>
            <path d="M10.966 13.446l-3.96 2.97L21.834 28.85c.45.396 1.02.676 1.671.676.652 0 1.247-.28 1.696-.676l14.803-12.434-3.96-2.97"/>
            <path d="M11.874 19.913V9.956c0-1.027.83-1.858 1.858-1.858h19.821c1.027 0 1.859.831 1.859 1.858v9.957"/>
        </g>
        <g transform="rotate(-45 24.836 22.066)">
            <path stroke-linecap="square" d="M.62 22.239h44.177"/>
            <circle cx="22.551" cy="22.551" r="22.551"/>
        </g>
    </g>
</svg>
