<svg xmlns="http://www.w3.org/2000/svg" width="44" height="60" viewBox="0 0 44 60">
    <g fill="none" fill-rule="evenodd" stroke="#9B9B9B" stroke-width="2">
        <path d="M18 42c-3.86 0-7-3.14-7-7s3.14-7 7-7 7 3.14 7 7-3.14 7-7 7z"/>
        <path d="M17.158 47.885a3.193 3.193 0 0 1-1.767-1.246l-.817-1.166a1.499 1.499 0 0 0-.66-.53l-.042-.016a1.492 1.492 0 0 0-.842-.092l-1.4.248a3.195 3.195 0 0 1-3.705-3.698l.247-1.402c.05-.284.018-.575-.093-.84l-.019-.048a1.499 1.499 0 0 0-.528-.655l-1.167-.815a3.194 3.194 0 0 1-.003-5.234l1.155-.81c.237-.166.42-.395.53-.66l.025-.064c.11-.266.142-.556.091-.84l-.246-1.388a3.193 3.193 0 0 1 3.698-3.703l1.371.24c.286.051.577.02.838-.091.097-.041.195-.08.293-.119.131-.05.24-.134.315-.24l.944-1.351a3.195 3.195 0 0 1 5.234-.004l.79 1.13c.167.239.395.421.659.528l.12.049c.26.11.549.14.835.09l1.357-.24a3.197 3.197 0 0 1 2.816.883 3.2 3.2 0 0 1 .888 2.814l-.24 1.358a1.47 1.47 0 0 0 .09.835l.051.12c.107.263.29.49.529.658l1.13.79a3.194 3.194 0 0 1 .003 5.234l-1.14.797c-.237.167-.42.394-.527.658l-.04.098c-.11.261-.142.551-.09.838l.243 1.37a3.196 3.196 0 0 1-3.7 3.703l-1.388-.244a1.508 1.508 0 0 0-.837.09l-.067.029a1.5 1.5 0 0 0-.66.53l-.807 1.156a3.197 3.197 0 0 1-3.467 1.25z"/>
        <path d="M24 45.5v11.916c0 .455-.326.861-.817 1.017-.14.045-.286.067-.43.067-.36 0-.709-.135-.95-.383L18 54.22l-3.802 3.897c-.339.347-.89.473-1.381.316-.49-.156-.817-.562-.817-1.017V45.57"/>
        <path d="M11.277 50H3.68C2.2 50 1 48.815 1 47.355V4.145C1 2.685 2.2 1 3.68 1h36.64C41.8 1 43 2.685 43 4.145v43.21C43 48.815 41.8 50 40.32 50H23.893"/>
        <path stroke-linecap="round" d="M5 6h34M5 11h34M5 16h18"/>
    </g>
</svg>
